# xmcd
#
# Track frame offsets:
#	150
#	16923
#	36096
#	49719
#	67767
#	82215
#	98313
#	111936
#	126084
#	142482
#	158580
#	174153
#	187101
#	203949
#	218847
#	231570
#	250668
#	265491
#	280464
#	296262
#	309360
#	325308
#
# Disc length: 4553 seconds
#
# Revision: 0
# Processed by: cddbd v1.5.2PL0 Copyright (c) Steve Scherf et al.
# Submitted via: audiograbber 1.83.01
#
DISCID=4211c716
DTITLE=Alabama - The Essential Alabama - Disc 2
DYEAR=1998
DGENRE=Country
TTITLE0=Touch Me When We're Dancing
TTITLE1=You've Got The Touch
TTITLE2=Face To Face
TTITLE3=Fallin' Again
TTITLE4=Song Of The South
TTITLE5=If I Had You
TTITLE6=High Cotton
TTITLE7=Southern Star
TTITLE8=Jukebox In My Mind
TTITLE9=Forever's As Far As I'll Go
TTITLE10=Down Home
TTITLE11=Here We Are
TTITLE12=Then Again
TTITLE13=Born Country
TTITLE14=I'm In A Hurry (And Don't Know Why)
TTITLE15=Once Upon A Lifetime
TTITLE16=Hometown Honeymoon
TTITLE17=Reckless
TTITLE18=Give Me One More Shot
TTITLE19=She Ain't Your Ordinary Girl
TTITLE20=In Pictures
TTITLE21=Sad Lookin' Moon
EXTD=YEAR: 1998
EXTT0=
EXTT1=
EXTT2=
EXTT3=
EXTT4=
EXTT5=
EXTT6=
EXTT7=
EXTT8=
EXTT9=
EXTT10=
EXTT11=
EXTT12=
EXTT13=
EXTT14=
EXTT15=
EXTT16=
EXTT17=
EXTT18=
EXTT19=
EXTT20=
EXTT21=
PLAYORDER=
